<svg id="visual" viewBox="0 0 900 600" width="900" height="600" xmlns="http://www.w3.org/2000/svg" xmlns:xlink="http://www.w3.org/1999/xlink" version="1.1"><g transform="translate(454.0899845222779 300.03595760946064)"><path d="M200 -337C264.9 -308.8 327.3 -266.9 360.2 -208.5C393.1 -150 396.6 -75 393.4 -1.8C390.2 71.3 380.4 142.7 348.9 203.4C317.3 264.2 263.9 314.4 202.1 344.7C140.3 375.1 70.2 385.5 2.1 381.9C-66 378.3 -132 360.6 -193.3 330C-254.7 299.5 -311.4 256 -349.2 198.8C-387 141.7 -406 70.8 -402 2.3C-397.9 -66.2 -370.9 -132.3 -335.4 -193.5C-299.9 -254.7 -255.9 -311 -198.6 -343.5C-141.3 -376 -70.7 -384.9 -1.6 -382.2C67.5 -379.4 135 -365.1 200 -337" fill="#0066ff"></path></g></svg>