<svg id="visual" viewBox="0 0 900 600" width="900" height="600" xmlns="http://www.w3.org/2000/svg" xmlns:xlink="http://www.w3.org/1999/xlink" version="1.1"><g transform="translate(448.6860256758046 293.11288848420475)"><path d="M95.1 -165.1C123.5 -148.3 147.1 -123.4 167.9 -94.5C188.7 -65.7 206.9 -32.8 209 1.2C211.2 35.3 197.4 70.7 178.5 102.9C159.6 135 135.5 164.1 104.9 181.9C74.3 199.7 37.2 206.4 0.6 205.4C-36 204.4 -72 195.7 -100.4 176.6C-128.8 157.5 -149.7 128 -168 96.8C-186.3 65.6 -202.2 32.8 -205.8 -2.1C-209.4 -37 -200.8 -74 -181.8 -104C-162.8 -134 -133.4 -157.1 -101.4 -171.8C-69.3 -186.4 -34.7 -192.7 -0.7 -191.6C33.3 -190.4 66.7 -181.8 95.1 -165.1" fill="#0066ff"></path></g></svg>