<svg id="visual" viewBox="0 0 900 600" width="900" height="600" xmlns="http://www.w3.org/2000/svg" xmlns:xlink="http://www.w3.org/1999/xlink" version="1.1"><g transform="translate(435.123583940632 287.22035500988204)"><path d="M197 -333.3C261.9 -303.6 325.8 -264.3 363.3 -207.2C400.8 -150 411.9 -75 411.8 -0.1C411.6 74.8 400.2 149.7 363.6 208.3C326.9 266.9 264.9 309.2 200.1 344C135.3 378.7 67.7 405.9 -1.3 408.2C-70.3 410.5 -140.7 388 -197.5 348.6C-254.3 309.3 -297.7 253.1 -329.3 192.2C-361 131.3 -381 65.6 -382 -0.6C-383.1 -66.8 -365.2 -133.7 -331.3 -190.7C-297.4 -247.7 -247.4 -294.9 -189.5 -328.6C-131.7 -362.4 -65.8 -382.7 0.1 -382.8C66 -383 132 -363 197 -333.3" fill="#0066ff"></path></g></svg>