<svg id="visual" viewBox="0 0 900 600" width="900" height="600" xmlns="http://www.w3.org/2000/svg" xmlns:xlink="http://www.w3.org/1999/xlink" version="1.1"><g transform="translate(446.2556461342764 310.4286326783841)"><path d="M198.7 -347.1C261 -308.1 317.6 -262.1 351 -203C384.4 -144 394.7 -72 393.1 -0.9C391.5 70.2 378.1 140.3 343.4 197.2C308.7 254 252.8 297.5 192 334.3C131.3 371 65.6 401 -1.2 403.1C-68 405.1 -136 379.2 -194.5 341.1C-252.9 303.1 -301.8 252.8 -333.8 193.9C-365.8 135 -380.9 67.5 -384.8 -2.2C-388.7 -72 -381.4 -144 -352.5 -208.2C-323.6 -272.5 -273 -328.9 -210.7 -367.9C-148.3 -406.9 -74.2 -428.5 -3 -423.3C68.2 -418.1 136.3 -386.1 198.7 -347.1" fill="#0066ff"></path></g></svg>