<svg id="visual" viewBox="0 0 900 600" width="900" height="600" xmlns="http://www.w3.org/2000/svg" xmlns:xlink="http://www.w3.org/1999/xlink" version="1.1"><g transform="translate(455.3324656339833 300.5964697505308)"><path d="M103.8 -182.5C133 -163 154 -132 169.1 -99.7C184.3 -67.3 193.6 -33.7 192.9 -0.4C192.2 32.8 181.4 65.7 164.5 95C147.6 124.3 124.5 150 96.1 170.5C67.7 190.9 33.8 205.9 -1.5 208.5C-36.8 211.1 -73.7 201.3 -102.1 180.8C-130.5 160.4 -150.5 129.4 -168.3 97.5C-186 65.6 -201.5 32.8 -203.4 -1.1C-205.3 -35 -193.6 -70 -176.2 -102.5C-158.7 -135 -135.6 -164.9 -105.3 -183.7C-75 -202.6 -37.5 -210.3 -0.1 -210.1C37.3 -210 74.7 -202 103.8 -182.5" fill="#0066ff"></path></g></svg>