<svg id="visual" viewBox="0 0 900 600" width="900" height="600" xmlns="http://www.w3.org/2000/svg" xmlns:xlink="http://www.w3.org/1999/xlink" version="1.1"><g transform="translate(440.39060902387456 305.7441381131642)"><path d="M99 -173.9C129.3 -153.9 155.6 -129.5 175.1 -99.7C194.6 -70 207.3 -35 209 1C210.8 37 201.5 74 183.2 105.8C164.8 137.5 137.4 164 105.4 180.2C73.3 196.4 36.7 202.2 1.9 198.8C-32.8 195.5 -65.6 183 -95.2 165.4C-124.8 147.8 -151.2 125.2 -167.4 96.8C-183.7 68.3 -189.8 34.2 -190 -0.1C-190.1 -34.3 -184.3 -68.7 -169.7 -100C-155.1 -131.3 -131.8 -159.6 -102.1 -180C-72.3 -200.3 -36.2 -212.6 -0.9 -211.1C34.3 -209.5 68.7 -193.9 99 -173.9" fill="#0066ff"></path></g></svg>