<svg id="visual" viewBox="0 0 900 600" width="900" height="600" xmlns="http://www.w3.org/2000/svg" xmlns:xlink="http://www.w3.org/1999/xlink" version="1.1"><g fill="none" stroke="#0066ff" stroke-width="2"><circle r="58" cx="561" cy="121"></circle><circle r="2" cx="3" cy="40"></circle><circle r="3" cx="55" cy="350"></circle><circle r="13" cx="386" cy="370"></circle><circle r="50" cx="620" cy="312"></circle><circle r="19" cx="437" cy="571"></circle><circle r="7" cx="623" cy="581"></circle><circle r="48" cx="727" cy="93"></circle><circle r="41" cx="216" cy="246"></circle><circle r="24" cx="762" cy="418"></circle><circle r="46" cx="440" cy="1"></circle><circle r="16" cx="882" cy="76"></circle><circle r="49" cx="218" cy="440"></circle><circle r="34" cx="427" cy="178"></circle><circle r="54" cx="121" cy="80"></circle><circle r="20" cx="303" cy="26"></circle><circle r="40" cx="558" cy="438"></circle><circle r="53" cx="276" cy="576"></circle><circle r="35" cx="866" cy="284"></circle><circle r="10" cx="10" cy="499"></circle><circle r="9" cx="92" cy="218"></circle><circle r="16" cx="105" cy="582"></circle><circle r="24" cx="837" cy="590"></circle><circle r="17" cx="717" cy="214"></circle></g></svg>