<svg id="visual" viewBox="0 0 900 600" width="900" height="600" xmlns="http://www.w3.org/2000/svg" xmlns:xlink="http://www.w3.org/1999/xlink" version="1.1"><rect x="0" y="0" width="900" height="600" fill="#002233"></rect><g transform="translate(450.81615329094143 303.33176710100213)"><path d="M67.7 -127C88.4 -105.2 106.6 -88.6 132.4 -68.3C158.1 -48 191.6 -24 191.7 0.1C191.9 24.2 158.7 48.3 137.8 77.1C116.9 105.8 108.2 139.1 87.3 155.3C66.3 171.6 33.2 170.8 -0.6 171.8C-34.3 172.8 -68.7 175.6 -90.3 159.8C-112 143.9 -120.9 109.5 -137.8 79.7C-154.6 50 -179.3 25 -188.8 -5.5C-198.4 -36 -192.7 -72 -172.2 -95.4C-151.7 -118.8 -116.4 -129.5 -85.2 -145.4C-54 -161.2 -27 -182.1 -1.8 -179C23.4 -175.9 46.9 -148.9 67.7 -127" fill="#0066FF"></path></g></svg>