<svg id="visual" viewBox="0 0 900 600" width="900" height="600" xmlns="http://www.w3.org/2000/svg" xmlns:xlink="http://www.w3.org/1999/xlink" version="1.1"><rect x="0" y="0" width="900" height="600" fill="#002233"></rect><g transform="translate(456.8155823082402 302.6733972433682)"><path d="M87.1 -152.1C114.3 -135.3 138.5 -114.6 148.5 -88.6C158.5 -62.7 154.3 -31.3 151.7 -1.5C149.1 28.3 148.1 56.7 135.7 78.5C123.3 100.3 99.4 115.5 74.9 125.5C50.3 135.5 25.2 140.3 -6.2 150.9C-37.5 161.6 -75 178.2 -103 170.2C-131 162.2 -149.5 129.6 -158.9 97.1C-168.3 64.7 -168.7 32.3 -168.4 0.2C-168.1 -32 -167.2 -64 -150.7 -84.3C-134.3 -104.6 -102.3 -113.2 -74.6 -129.7C-46.9 -146.2 -23.4 -170.6 3.3 -176.3C30 -182 60 -168.9 87.1 -152.1" fill="#0066FF"></path></g></svg>