<svg id="visual" viewBox="0 0 900 600" width="900" height="600" xmlns="http://www.w3.org/2000/svg" xmlns:xlink="http://www.w3.org/1999/xlink" version="1.1"><rect x="0" y="0" width="900" height="600" fill="#0066ff"></rect><path d="M0 563L25 549.7C50 536.3 100 509.7 150 492.3C200 475 250 467 300 472.3C350 477.7 400 496.3 450 507.5C500 518.7 550 522.3 600 518.7C650 515 700 504 750 495.5C800 487 850 481 875 478L900 475L900 601L875 601C850 601 800 601 750 601C700 601 650 601 600 601C550 601 500 601 450 601C400 601 350 601 300 601C250 601 200 601 150 601C100 601 50 601 25 601L0 601Z" fill="#0066ff"></path><path d="M0 499L25 512C50 525 100 551 150 556.2C200 561.3 250 545.7 300 542.2C350 538.7 400 547.3 450 542C500 536.7 550 517.3 600 513.5C650 509.7 700 521.3 750 533.3C800 545.3 850 557.7 875 563.8L900 570L900 601L875 601C850 601 800 601 750 601C700 601 650 601 600 601C550 601 500 601 450 601C400 601 350 601 300 601C250 601 200 601 150 601C100 601 50 601 25 601L0 601Z" fill="#002233"></path><path d="M0 581L25 572C50 563 100 545 150 542C200 539 250 551 300 552.5C350 554 400 545 450 540C500 535 550 534 600 539.5C650 545 700 557 750 559.7C800 562.3 850 555.7 875 552.3L900 549L900 601L875 601C850 601 800 601 750 601C700 601 650 601 600 601C550 601 500 601 450 601C400 601 350 601 300 601C250 601 200 601 150 601C100 601 50 601 25 601L0 601Z" fill="#cccccc"></path></svg>