<?xml version="1.0" ?><!DOCTYPE svg  PUBLIC '-//W3C//DTD SVG 1.1//EN'  'http://www.w3.org/Graphics/SVG/1.1/DTD/svg11.dtd'><svg height="512px" style="enable-background:new 0 0 512 512;" version="1.1" viewBox="0 0 512 512" width="512px" xml:space="preserve" xmlns="http://www.w3.org/2000/svg" xmlns:xlink="http://www.w3.org/1999/xlink"><g id="_x32_7_x2C__Websites"><g><polygon points="343.5,113.5 343.5,53.5 103.5,53.5 103.5,123.5 103.5,463.5 403.5,463.5 403.5,113.5   " style="fill:#FFFFFF;"/><rect height="260" style="fill:#9BC9FF;" width="230" x="138.5" y="168.5"/><path d="M61,358.5c9.67,0,17.5,7.83,17.5,17.5s-7.83,17.5-17.5,17.5c-9.66,0-17.5-7.83-17.5-17.5    S51.34,358.5,61,358.5z" style="fill:#9BC9FF;"/><path d="M443.5,48.5c13.811,0,25,11.19,25,25s-11.189,25-25,25c-13.81,0-25-11.19-25-25    S429.69,48.5,443.5,48.5z" style="fill:#9BC9FF;"/><rect height="75" style="fill:#FFFFFF;" width="50" x="288.5" y="303.5"/><rect height="75" style="fill:#FFFFFF;" width="100" x="168.5" y="303.5"/><rect height="75" style="fill:#FFFFFF;" width="170" x="168.5" y="203.5"/><path d="M343.5,53.5c18.551,18.55,41.45,41.45,60,60h-60V53.5z" style="fill:#9BC9FF;"/><circle cx="451" cy="311" r="7.5" style="fill:#1E81CE;"/><circle cx="431" cy="141" r="7.5" style="fill:#1E81CE;"/><circle cx="71" cy="456" r="7.5" style="fill:#1E81CE;"/><circle cx="51" cy="101" r="7.5" style="fill:#1E81CE;"/><circle cx="46" cy="266" r="7.5" style="fill:#1E81CE;"/><path d="M403.5,468.5h-300c-2.761,0-5-2.238-5-5v-410c0-2.761,2.239-5,5-5h240    c1.326,0,2.598,0.527,3.535,1.464l60,60c0.938,0.938,1.465,2.209,1.465,3.536v350C408.5,466.262,406.262,468.5,403.5,468.5z     M108.5,458.5h290V115.571L341.429,58.5H108.5V458.5z" style="fill:#1E81CE;"/><path d="M403.5,118.5h-60c-2.762,0-5-2.239-5-5v-60c0-2.761,2.238-5,5-5s5,2.239,5,5v55h55    c2.762,0,5,2.239,5,5S406.262,118.5,403.5,118.5z" style="fill:#1E81CE;"/><path d="M368.5,433.5h-230c-2.761,0-5-2.238-5-5v-260c0-2.761,2.239-5,5-5h230c2.762,0,5,2.239,5,5v260    C373.5,431.262,371.262,433.5,368.5,433.5z M143.5,423.5h220v-250h-220V423.5z" style="fill:#1E81CE;"/><path d="M443.5,103.5c-16.542,0-30-13.458-30-30s13.458-30,30-30s30,13.458,30,30    S460.042,103.5,443.5,103.5z M443.5,53.5c-11.027,0-20,8.972-20,20s8.973,20,20,20s20-8.972,20-20S454.527,53.5,443.5,53.5z" style="fill:#1E81CE;"/><path d="M61,398.5c-12.407,0-22.5-10.094-22.5-22.5s10.093-22.5,22.5-22.5s22.5,10.094,22.5,22.5    S73.407,398.5,61,398.5z M61,363.5c-6.893,0-12.5,5.607-12.5,12.5s5.607,12.5,12.5,12.5s12.5-5.607,12.5-12.5    S67.893,363.5,61,363.5z" style="fill:#1E81CE;"/><path d="M198.5,128.5h-95c-2.761,0-5-2.239-5-5s2.239-5,5-5h95c2.761,0,5,2.239,5,5    S201.261,128.5,198.5,128.5z" style="fill:#1E81CE;"/><path d="M248.5,148.5h-55c-2.761,0-5-2.239-5-5s2.239-5,5-5h55c2.761,0,5,2.239,5,5    S251.261,148.5,248.5,148.5z" style="fill:#1E81CE;"/><path d="M338.5,283.5h-170c-2.761,0-5-2.238-5-5v-75c0-2.761,2.239-5,5-5h170c2.762,0,5,2.239,5,5v75    C343.5,281.262,341.262,283.5,338.5,283.5z M173.5,273.5h160v-65h-160V273.5z" style="fill:#1E81CE;"/><path d="M338.5,383.5h-50c-2.762,0-5-2.238-5-5v-75c0-2.762,2.238-5,5-5h50c2.762,0,5,2.238,5,5v75    C343.5,381.262,341.262,383.5,338.5,383.5z M293.5,373.5h40v-65h-40V373.5z" style="fill:#1E81CE;"/><path d="M268.5,383.5h-100c-2.761,0-5-2.238-5-5v-75c0-2.762,2.239-5,5-5h100c2.762,0,5,2.238,5,5v75    C273.5,381.262,271.262,383.5,268.5,383.5z M173.5,373.5h90v-65h-90V373.5z" style="fill:#1E81CE;"/></g></g><g id="Layer_1"/></svg>